<svg width="512" height="512" viewBox="0 0 512 512" fill="none" xmlns="http://www.w3.org/2000/svg">
<rect width="512" height="512" rx="70" fill="#3B82F6"/>
<path d="M256 100C195.6 100 147 148.6 147 209V303C147 339.4 176.6 369 213 369H299C335.4 369 365 339.4 365 303V209C365 148.6 316.4 100 256 100Z" fill="white"/>
<circle cx="200" cy="180" r="15" fill="#3B82F6"/>
<circle cx="312" cy="180" r="15" fill="#3B82F6"/>
<path d="M180 240H332C338.6 240 344 245.4 344 252V270C344 276.6 338.6 282 332 282H180C173.4 282 168 276.6 168 270V252C168 245.4 173.4 240 180 240Z" fill="#3B82F6"/>
<path d="M200 320H312C318.6 320 324 325.4 324 332C324 338.6 318.6 344 312 344H200C193.4 344 188 338.6 188 332C188 325.4 193.4 320 200 320Z" fill="#3B82F6"/>
<path d="M140 400H372C383 400 392 409 392 420V440C392 451 383 460 372 460H140C129 460 120 451 120 440V420C120 409 129 400 140 400Z" fill="#22C55E"/>
</svg>
